<svg width="20" height="20" viewBox="0 0 20 20" fill="none" xmlns="http://www.w3.org/2000/svg">
<g id="fi-rr-at" clip-path="url(#clip0_4_22)">
<path id="Vector" d="M9.99996 -7.62939e-06C7.34867 0.00285994 4.8068 1.05735 2.93206 2.93209C1.05731 4.80683 0.00282371 7.34871 -4.38628e-05 9.99999C-0.105044 17.9775 9.29912 22.8575 15.75 18.1808C15.8427 18.1192 15.9221 18.0395 15.9835 17.9467C16.0449 17.8538 16.0871 17.7496 16.1076 17.6402C16.128 17.5307 16.1263 17.4183 16.1026 17.3095C16.0789 17.2007 16.0337 17.0978 15.9695 17.0068C15.9054 16.9158 15.8236 16.8386 15.7291 16.7797C15.6346 16.7208 15.5293 16.6815 15.4193 16.664C15.3094 16.6465 15.197 16.6512 15.0889 16.6779C14.9808 16.7045 14.8792 16.7526 14.79 16.8192C9.41662 20.7133 1.58329 16.6483 1.66662 9.99999C2.12412 -1.05501 17.8775 -1.05251 18.3333 9.99999V11.6667C18.3333 12.1087 18.1577 12.5326 17.8451 12.8452C17.5326 13.1577 17.1087 13.3333 16.6666 13.3333C16.2246 13.3333 15.8007 13.1577 15.4881 12.8452C15.1756 12.5326 15 12.1087 15 11.6667V9.99999C14.79 3.39249 5.20912 3.39333 4.99996 9.99999C5.00966 11.0133 5.32617 11.9999 5.90778 12.8298C6.48938 13.6596 7.30879 14.2938 8.258 14.6487C9.20721 15.0035 10.2417 15.0625 11.225 14.8177C12.2084 14.5729 13.0945 14.0359 13.7666 13.2775C14.1281 13.9155 14.6899 14.4165 15.365 14.7029C16.0401 14.9893 16.7908 15.0451 17.5008 14.8616C18.2108 14.6781 18.8405 14.2656 19.2923 13.688C19.7441 13.1104 19.9928 12.3999 20 11.6667V9.99999C19.9971 7.34871 18.9426 4.80683 17.0679 2.93209C15.1931 1.05735 12.6512 0.00285994 9.99996 -7.62939e-06V-7.62939e-06ZM9.99996 13.3333C9.1159 13.3333 8.26805 12.9821 7.64293 12.357C7.01781 11.7319 6.66662 10.884 6.66662 9.99999C6.66662 9.11594 7.01781 8.26809 7.64293 7.64297C8.26805 7.01785 9.1159 6.66666 9.99996 6.66666C10.884 6.66666 11.7319 7.01785 12.357 7.64297C12.9821 8.26809 13.3333 9.11594 13.3333 9.99999C13.3333 10.884 12.9821 11.7319 12.357 12.357C11.7319 12.9821 10.884 13.3333 9.99996 13.3333Z" fill="#767474"/>
</g>
<defs>
<clipPath id="clip0_4_22">
<rect width="20" height="20" fill="white"/>
</clipPath>
</defs>
</svg>
