<svg width="541" height="145" viewBox="0 0 541 145" fill="none" xmlns="http://www.w3.org/2000/svg">
<path d="M120.122 52.2H101.21V37.896H156.122V52.2H137.114V105H120.122V52.2ZM161.383 37.896H191.527C199.399 37.896 205.543 39.88 209.958 43.848C214.439 47.816 216.679 53.512 216.679 60.936C216.679 65.928 215.591 70.184 213.415 73.704C211.239 77.224 208.167 79.848 204.199 81.576L216.103 105H198.631L187.975 83.976H178.375V105H161.383V37.896ZM188.551 69.672C191.943 69.672 194.567 69.032 196.423 67.752C198.279 66.408 199.207 64.136 199.207 60.936C199.207 57.608 198.279 55.336 196.423 54.12C194.631 52.84 192.007 52.2 188.551 52.2H178.375V69.672H188.551ZM253.493 106.44C243.381 106.44 235.765 103.752 230.645 98.376C225.525 92.936 222.965 85.768 222.965 76.872V37.896H239.957V77.064C239.957 81.544 241.141 84.936 243.509 87.24C245.941 89.544 249.269 90.696 253.493 90.696C257.717 90.696 261.013 89.544 263.381 87.24C265.749 84.936 266.933 81.544 266.933 77.064V37.896H283.925V76.872C283.925 85.832 281.365 93 276.245 98.376C271.189 103.752 263.605 106.44 253.493 106.44ZM292.07 37.896H339.686V52.2H309.062V64.776H331.43V78.12H309.062V90.696H339.686V105H292.07V37.896ZM381.327 105C373.711 105 367.023 103.656 361.263 100.968C355.503 98.216 351.023 94.312 347.823 89.256C344.687 84.2 343.119 78.248 343.119 71.4C343.119 64.552 344.687 58.472 347.823 53.16C351.023 47.848 355.343 43.752 360.783 40.872C366.287 37.928 372.431 36.456 379.215 36.456C385.935 36.456 392.015 37.928 397.455 40.872C402.959 43.752 407.279 47.848 410.415 53.16C413.551 58.472 415.119 64.552 415.119 71.4C415.119 75.24 414.191 79.048 412.335 82.824C410.543 86.536 408.303 89.512 405.615 91.752H416.847V105H381.327ZM379.215 90.504C382.607 90.504 385.711 89.736 388.527 88.2C391.343 86.664 393.583 84.456 395.247 81.576C396.911 78.696 397.743 75.336 397.743 71.496C397.743 67.656 396.911 64.328 395.247 61.512C393.647 58.632 391.439 56.424 388.623 54.888C385.807 53.288 382.671 52.488 379.215 52.488C375.695 52.488 372.527 53.288 369.711 54.888C366.895 56.424 364.655 58.632 362.991 61.512C361.391 64.328 360.591 67.656 360.591 71.496C360.591 75.336 361.391 78.696 362.991 81.576C364.655 84.456 366.895 86.664 369.711 88.2C372.591 89.736 375.759 90.504 379.215 90.504ZM452.149 106.44C442.037 106.44 434.421 103.752 429.301 98.376C424.181 92.936 421.621 85.768 421.621 76.872V37.896H438.613V77.064C438.613 81.544 439.797 84.936 442.165 87.24C444.597 89.544 447.925 90.696 452.149 90.696C456.373 90.696 459.669 89.544 462.037 87.24C464.405 84.936 465.589 81.544 465.589 77.064V37.896H482.581V76.872C482.581 85.832 480.021 93 474.901 98.376C469.845 103.752 462.261 106.44 452.149 106.44ZM490.726 37.896H538.342V52.2H507.718V64.776H530.086V78.12H507.718V90.696H538.342V105H490.726V37.896Z" fill="#3777FF"/>
<g clip-path="url(#clip0_170_1289)">
<path d="M97.8 89.4744L90.9625 79.1161L84.0125 83.6994L90.8333 94.0827C91.3143 94.7837 91.5909 95.6046 91.6321 96.4538C91.6733 97.3029 91.4775 98.1468 91.0667 98.891C90.6515 99.6673 90.0306 100.314 89.2721 100.761C88.5137 101.208 87.6469 101.437 86.7667 101.424H53.6626L59.8209 95.2785L53.9376 89.3785L43.4251 99.866C42.6493 100.646 42.035 101.572 41.6172 102.589C41.1995 103.607 40.9864 104.697 40.9903 105.798C40.9942 106.898 41.2149 107.986 41.6398 109.001C42.0647 110.016 42.6855 110.937 43.4667 111.712L53.9626 121.999L59.7959 116.054L53.3709 109.741H86.7833C89.1664 109.749 91.507 109.111 93.5562 107.894C95.6054 106.678 97.2865 104.928 98.4208 102.833C99.5565 100.765 100.1 98.4231 99.99 96.0662C99.8804 93.7093 99.1226 91.4283 97.8 89.4744Z" fill="#28AFB0"/>
<path d="M49.0001 34.5536C49.8155 34.551 50.6191 34.7478 51.341 35.1269C52.0629 35.506 52.6811 36.0559 53.1418 36.7286L70.946 63.6661L61.7168 61.8453L60.1085 70.0203L75.1918 72.9953C76.2721 73.2091 77.3841 73.2067 78.4635 72.9881C79.5428 72.7696 80.5682 72.3393 81.4802 71.7221C82.3923 71.1049 83.173 70.313 83.7771 69.3923C84.3813 68.4715 84.797 67.4402 85.0001 66.3578L87.8501 51.0911L79.6543 49.562L77.8835 59.0578L60.096 32.137C58.8739 30.2933 57.209 28.7855 55.2537 27.7515C53.2983 26.7175 51.115 26.1902 48.9032 26.218C46.6915 26.2458 44.522 26.8277 42.5933 27.9105C40.6645 28.9932 39.038 30.5424 37.8626 32.4161L32.7168 40.6161L39.771 45.0495L44.9293 36.837C45.3557 36.1398 45.954 35.5638 46.6667 35.164C47.3795 34.7642 48.1829 34.5541 49.0001 34.5536Z" fill="#28AFB0"/>
<path d="M26.9049 65.5527L28.6965 75.1777L36.8924 73.6652L34.0424 58.3819C33.8396 57.3 33.4246 56.269 32.8212 55.3484C32.2178 54.4278 31.4379 53.6359 30.5268 53.0183C29.6156 52.4008 28.5911 51.9699 27.5124 51.7505C26.4338 51.5312 25.3224 51.5277 24.2424 51.7402L9.16737 54.711L10.7799 62.886L19.8799 61.0902L1.99237 89.5402C0.75023 91.5056 0.0640554 93.771 0.00682752 96.0953C-0.0504004 98.4197 0.523459 100.716 1.66737 102.74C2.80179 104.805 4.47437 106.523 6.50732 107.713C8.54028 108.903 10.8577 109.52 13.2132 109.499H29.1674V101.165H13.2132C12.3448 101.176 11.4896 100.952 10.7383 100.516C9.98709 100.081 9.36791 99.4496 8.94653 98.6902C8.53268 97.9657 8.32443 97.142 8.34426 96.3079C8.36409 95.4738 8.61123 94.6609 9.05903 93.9569L26.9049 65.5527Z" fill="#28AFB0"/>
</g>
<defs>
<clipPath id="clip0_170_1289">
<rect width="100" height="100" fill="white" transform="translate(0 22)"/>
</clipPath>
</defs>
</svg>
