<svg width="172" height="24" viewBox="0 0 172 24" fill="none" xmlns="http://www.w3.org/2000/svg">
<path d="M9.76 0.631998H15.328L24.256 23H18.464L16.672 18.392H8.416L6.624 23H0.8L9.76 0.631998ZM15.264 14.04L12.544 6.52L9.792 14.04H15.264Z" fill="#28AFB0"/>
<path d="M31.6865 5.4H25.3825V0.631998H43.6865V5.4H37.3505V23H31.6865V5.4ZM45.44 0.631998H55.488C58.112 0.631998 60.16 1.29333 61.632 2.616C63.1253 3.93867 63.872 5.83733 63.872 8.312C63.872 9.976 63.5093 11.3947 62.784 12.568C62.0587 13.7413 61.0347 14.616 59.712 15.192L63.68 23H57.856L54.304 15.992H51.104V23H45.44V0.631998ZM54.496 11.224C55.6267 11.224 56.5013 11.0107 57.12 10.584C57.7387 10.136 58.048 9.37867 58.048 8.312C58.048 7.20267 57.7387 6.44533 57.12 6.04C56.5227 5.61333 55.648 5.4 54.496 5.4H51.104V11.224H54.496ZM76.1435 23.48C72.7728 23.48 70.2342 22.584 68.5275 20.792C66.8208 18.9787 65.9675 16.5893 65.9675 13.624V0.631998H71.6315V13.688C71.6315 15.1813 72.0262 16.312 72.8155 17.08C73.6262 17.848 74.7355 18.232 76.1435 18.232C77.5515 18.232 78.6502 17.848 79.4395 17.08C80.2288 16.312 80.6235 15.1813 80.6235 13.688V0.631998H86.2875V13.624C86.2875 16.6107 85.4342 19 83.7275 20.792C82.0422 22.584 79.5142 23.48 76.1435 23.48ZM89.0025 0.631998H104.875V5.4H94.6665V9.592H102.123V14.04H94.6665V18.232H104.875V23H89.0025V0.631998ZM118.755 23C116.216 23 113.987 22.552 112.067 21.656C110.147 20.7387 108.653 19.4373 107.587 17.752C106.541 16.0667 106.019 14.0827 106.019 11.8C106.019 9.51733 106.541 7.49067 107.587 5.72C108.653 3.94933 110.093 2.584 111.907 1.624C113.741 0.642665 115.789 0.151999 118.051 0.151999C120.291 0.151999 122.317 0.642665 124.131 1.624C125.965 2.584 127.405 3.94933 128.451 5.72C129.496 7.49067 130.019 9.51733 130.019 11.8C130.019 13.08 129.709 14.3493 129.091 15.608C128.493 16.8453 127.747 17.8373 126.851 18.584H130.595V23H118.755ZM118.051 18.168C119.181 18.168 120.216 17.912 121.155 17.4C122.093 16.888 122.84 16.152 123.395 15.192C123.949 14.232 124.227 13.112 124.227 11.832C124.227 10.552 123.949 9.44267 123.395 8.504C122.861 7.544 122.125 6.808 121.187 6.296C120.248 5.76267 119.203 5.496 118.051 5.496C116.877 5.496 115.821 5.76267 114.883 6.296C113.944 6.808 113.197 7.544 112.643 8.504C112.109 9.44267 111.843 10.552 111.843 11.832C111.843 13.112 112.109 14.232 112.643 15.192C113.197 16.152 113.944 16.888 114.883 17.4C115.843 17.912 116.899 18.168 118.051 18.168ZM142.362 23.48C138.992 23.48 136.453 22.584 134.746 20.792C133.04 18.9787 132.186 16.5893 132.186 13.624V0.631998H137.85V13.688C137.85 15.1813 138.245 16.312 139.034 17.08C139.845 17.848 140.954 18.232 142.362 18.232C143.77 18.232 144.869 17.848 145.658 17.08C146.448 16.312 146.842 15.1813 146.842 13.688V0.631998H152.506V13.624C152.506 16.6107 151.653 19 149.946 20.792C148.261 22.584 145.733 23.48 142.362 23.48ZM155.221 0.631998H171.093V5.4H160.885V9.592H168.341V14.04H160.885V18.232H171.093V23H155.221V0.631998Z" fill="#3777FF"/>
</svg>
